<svg width="68" height="24" viewBox="0 0 68 24" fill="none" xmlns="http://www.w3.org/2000/svg">
<path d="M10.201 4.18757H8.92953V4H10.201V4.18757Z" fill="currentColor"/>
<path d="M17.2008 4.18757H15.9294V4H17.2008V4.18757Z" fill="currentColor"/>
<path d="M32.6005 4.18757H31.3291V4H32.6005V4.18757Z" fill="currentColor"/>
<path d="M34.0005 4.18757H32.729V4H34.0005V4.18757Z" fill="currentColor"/>
<path d="M35.4005 4.18757H34.129V4H35.4005V4.18757Z" fill="currentColor"/>
<path d="M36.8005 4.18757H35.529V4H36.8005V4.18757Z" fill="currentColor"/>
<path d="M38.2004 4.18757H36.929V4H38.2004V4.18757Z" fill="currentColor"/>
<path d="M42.4003 4.18757H41.1289V4H42.4003V4.18757Z" fill="currentColor"/>
<path d="M43.8003 4.18757H42.5288V4H43.8003V4.18757Z" fill="currentColor"/>
<path d="M45.2003 4.18757H43.9288V4H45.2003V4.18757Z" fill="currentColor"/>
<path d="M46.6003 4.18757H45.3288V4H46.6003V4.18757Z" fill="currentColor"/>
<path d="M48.0002 4.18757H46.7288V4H48.0002V4.18757Z" fill="currentColor"/>
<path d="M49.4002 4.18757H48.1287V4H49.4002V4.18757Z" fill="currentColor"/>
<path d="M50.8002 4.18757H49.5287V4H50.8002V4.18757Z" fill="currentColor"/>
<path d="M52.2001 4.18757H50.9287V4H52.2001V4.18757Z" fill="currentColor"/>
<path d="M57.8 4.18757H56.5286V4H57.8V4.18757Z" fill="currentColor"/>
<path d="M59.2 4.18757H57.9285V4H59.2V4.18757Z" fill="currentColor"/>
<path d="M8 7.49512V4.36889H8.33058V7.49512H8Z" fill="currentColor"/>
<path d="M10.7999 7.49512V4.36889H11.1305V7.49512H10.7999Z" fill="currentColor"/>
<path d="M14.9999 7.49512V4.36889H15.3304V7.49512H14.9999Z" fill="currentColor"/>
<path d="M17.7998 7.49512V4.36889H18.1304V7.49512H17.7998Z" fill="currentColor"/>
<path d="M24.1498 4.6315L23.3298 6.78234H22.9801L23.8002 4.6315H24.1498Z" fill="currentColor"/>
<path d="M24.7297 4.6315L25.5498 6.78234H25.2002L24.3801 4.6315H24.7297Z" fill="currentColor"/>
<path d="M30.3995 7.49512V4.36889H30.7301V7.49512H30.3995Z" fill="currentColor"/>
<path d="M35.4005 7.31379H34.129V7.12622H35.4005V7.31379Z" fill="currentColor"/>
<path d="M36.8005 7.31379H35.529V7.12622H36.8005V7.31379Z" fill="currentColor"/>
<path d="M38.7294 4.6315L39.5495 6.78234H39.1999L38.3798 4.6315H38.7294Z" fill="currentColor"/>
<path d="M40.1993 7.49512V4.36889H40.5299V7.49512H40.1993Z" fill="currentColor"/>
<path d="M45.2003 7.31379H43.9288V7.12622H45.2003V7.31379Z" fill="currentColor"/>
<path d="M46.6003 7.31379H45.3288V7.12622H46.6003V7.31379Z" fill="currentColor"/>
<path d="M48.0002 7.31379H46.7288V7.12622H48.0002V7.31379Z" fill="currentColor"/>
<path d="M49.4002 7.31379H48.1287V7.12622H49.4002V7.31379Z" fill="currentColor"/>
<path d="M49.9292 4.6315L50.7493 6.78234H50.3997L49.5796 4.6315H49.9292Z" fill="currentColor"/>
<path d="M52.7292 4.6315L53.5493 6.78234H53.1996L52.3795 4.6315H52.7292Z" fill="currentColor"/>
<path d="M56.3492 4.6315L55.5291 6.78234H55.1795L55.9995 4.6315H56.3492Z" fill="currentColor"/>
<path d="M59.1491 4.6315L58.329 6.78234H57.9794L58.7995 4.6315H59.1491Z" fill="currentColor"/>
<path d="M8 10.6213V7.49512H8.33058V10.6213H8Z" fill="currentColor"/>
<path d="M10.7999 10.6213V7.49512H11.1305V10.6213H10.7999Z" fill="currentColor"/>
<path d="M13.0009 10.44H11.7295V10.2524H13.0009V10.44Z" fill="currentColor"/>
<path d="M14.4009 10.44H13.1294V10.2524H14.4009V10.44Z" fill="currentColor"/>
<path d="M14.9999 10.6213V7.49512H15.3304V10.6213H14.9999Z" fill="currentColor"/>
<path d="M17.7998 10.6213V7.49512H18.1304V10.6213H17.7998Z" fill="currentColor"/>
<path d="M22.7499 7.75772L21.9298 9.90856H21.5801L22.4002 7.75772H22.7499Z" fill="currentColor"/>
<path d="M26.1297 7.75772L26.9498 9.90856H26.6001L25.78 7.75772H26.1297Z" fill="currentColor"/>
<path d="M30.3995 10.6213V7.49512H30.7301V10.6213H30.3995Z" fill="currentColor"/>
<path d="M33.1995 10.6213V7.49512H33.5301V10.6213H33.1995Z" fill="currentColor"/>
<path d="M35.4005 10.44H34.129V10.2524H35.4005V10.44Z" fill="currentColor"/>
<path d="M36.8005 10.44H35.529V10.2524H36.8005V10.44Z" fill="currentColor"/>
<path d="M37.0943 10.1524C37.5424 9.82415 37.8063 9.39273 37.8063 8.83314C37.8063 8.27354 37.5424 7.84213 37.0943 7.51387L37.2786 7.2669C37.8158 7.6483 38.1464 8.18601 38.1464 8.83314C38.1464 9.48027 37.8158 10.018 37.2786 10.3994L37.0943 10.1524Z" fill="currentColor"/>
<path d="M40.1993 10.6213V7.49512H40.5299V10.6213H40.1993Z" fill="currentColor"/>
<path d="M42.9993 10.6213V7.49512H43.3299V10.6213H42.9993Z" fill="currentColor"/>
<path d="M45.2003 10.44H43.9288V10.2524H45.2003V10.44Z" fill="currentColor"/>
<path d="M46.6003 10.44H45.3288V10.2524H46.6003V10.44Z" fill="currentColor"/>
<path d="M51.3292 7.75772L52.1493 9.90856H51.7996L50.9795 7.75772H51.3292Z" fill="currentColor"/>
<path d="M54.0815 9.90856L53.7668 7.75772H54.1101L54.3644 9.48339L54.6186 7.75772H54.9619L54.6473 9.90856H54.0815Z" fill="currentColor"/>
<path d="M57.7492 7.75772L56.9291 9.90856H56.5794L57.3995 7.75772H57.7492Z" fill="currentColor"/>
<path d="M8 13.7476V10.6213H8.33058V13.7476H8Z" fill="currentColor"/>
<path d="M13.0009 13.5662H11.7295V13.3787H13.0009V13.5662Z" fill="currentColor"/>
<path d="M14.4009 13.5662H13.1294V13.3787H14.4009V13.5662Z" fill="currentColor"/>
<path d="M17.7998 13.7476V10.6213H18.1304V13.7476H17.7998Z" fill="currentColor"/>
<path d="M21.3499 10.8839L20.5298 13.0348H20.1802L21.0003 10.8839H21.3499Z" fill="currentColor"/>
<path d="M24.1498 10.8839L23.3298 13.0348H22.9801L23.8002 10.8839H24.1498Z" fill="currentColor"/>
<path d="M24.7297 10.8839L25.5498 13.0348H25.2002L24.3801 10.8839H24.7297Z" fill="currentColor"/>
<path d="M27.5297 10.8839L28.3498 13.0348H28.0001L27.18 10.8839H27.5297Z" fill="currentColor"/>
<path d="M30.3995 13.7476V10.6213H30.7301V13.7476H30.3995Z" fill="currentColor"/>
<path d="M35.4005 13.5662H34.129V13.3787H35.4005V13.5662Z" fill="currentColor"/>
<path d="M39.5495 10.8839L38.7294 13.0348H38.3798L39.1999 10.8839H39.5495Z" fill="currentColor"/>
<path d="M40.1993 13.7476V10.6213H40.5299V13.7476H40.1993Z" fill="currentColor"/>
<path d="M45.2003 13.5662H43.9288V13.3787H45.2003V13.5662Z" fill="currentColor"/>
<path d="M46.6003 13.5662H45.3288V13.3787H46.6003V13.5662Z" fill="currentColor"/>
<path d="M47.1992 13.7476V10.6213H47.5298V13.7476H47.1992Z" fill="currentColor"/>
<path d="M52.4081 11.2903L52.6243 11.0746L53.5206 11.9594L52.6243 12.8441L52.4081 12.6284L53.0915 11.9594L52.4081 11.2903Z" fill="currentColor"/>
<path d="M56.1044 11.0746L56.3206 11.2903L55.6372 11.9594L56.3206 12.6284L56.1044 12.8441L55.2081 11.9594L56.1044 11.0746Z" fill="currentColor"/>
<path d="M8 16.8738V13.7476H8.33058V16.8738H8Z" fill="currentColor"/>
<path d="M10.7999 16.8738V13.7476H11.1305V16.8738H10.7999Z" fill="currentColor"/>
<path d="M14.9999 16.8738V13.7476H15.3304V16.8738H14.9999Z" fill="currentColor"/>
<path d="M17.7998 16.8738V13.7476H18.1304V16.8738H17.7998Z" fill="currentColor"/>
<path d="M19.9499 14.0102L19.1298 16.161H18.7802L19.6003 14.0102H19.9499Z" fill="currentColor"/>
<path d="M22.8007 16.6925H21.5293V16.5049H22.8007V16.6925Z" fill="currentColor"/>
<path d="M24.2007 16.6925H22.9292V16.5049H24.2007V16.6925Z" fill="currentColor"/>
<path d="M25.6007 16.6925H24.3292V16.5049H25.6007V16.6925Z" fill="currentColor"/>
<path d="M27.0006 16.6925H25.7292V16.5049H27.0006V16.6925Z" fill="currentColor"/>
<path d="M28.9296 14.0102L29.7497 16.161H29.4001L28.58 14.0102H28.9296Z" fill="currentColor"/>
<path d="M30.3995 16.8738V13.7476H30.7301V16.8738H30.3995Z" fill="currentColor"/>
<path d="M33.1995 16.8738V13.7476H33.5301V16.8738H33.1995Z" fill="currentColor"/>
<path d="M35.9295 14.0102L36.7496 16.161H36.3999L35.5798 14.0102H35.9295Z" fill="currentColor"/>
<path d="M38.7294 14.0102L39.5495 16.161H39.1999L38.3798 14.0102H38.7294Z" fill="currentColor"/>
<path d="M40.1993 16.8738V13.7476H40.5299V16.8738H40.1993Z" fill="currentColor"/>
<path d="M42.9993 16.8738V13.7476H43.3299V16.8738H42.9993Z" fill="currentColor"/>
<path d="M45.2003 16.6925H43.9288V16.5049H45.2003V16.6925Z" fill="currentColor"/>
<path d="M46.6003 16.6925H45.3288V16.5049H46.6003V16.6925Z" fill="currentColor"/>
<path d="M48.0002 16.6925H46.7288V16.5049H48.0002V16.6925Z" fill="currentColor"/>
<path d="M49.4002 16.6925H48.1287V16.5049H49.4002V16.6925Z" fill="currentColor"/>
<path d="M52.1493 14.0102L51.3292 16.161H50.9795L51.7996 14.0102H52.1493Z" fill="currentColor"/>
<path d="M54.1673 16.161V15.7733H54.5614V16.161H54.1673Z" fill="currentColor"/>
<path d="M56.9291 14.0102L57.7492 16.161H57.3995L56.5794 14.0102H56.9291Z" fill="currentColor"/>
<path d="M8 20V16.8738H8.33058V20H8Z" fill="currentColor"/>
<path d="M10.201 19.8187H8.92953V19.6311H10.201V19.8187Z" fill="currentColor"/>
<path d="M10.7999 20V16.8738H11.1305V20H10.7999Z" fill="currentColor"/>
<path d="M14.9999 20V16.8738H15.3304V20H14.9999Z" fill="currentColor"/>
<path d="M17.2008 19.8187H15.9294V19.6311H17.2008V19.8187Z" fill="currentColor"/>
<path d="M18.55 17.1364L17.7299 19.2872H17.3802L18.2003 17.1364H18.55Z" fill="currentColor"/>
<path d="M20.0008 19.8187H18.7293V19.6311H20.0008V19.8187Z" fill="currentColor"/>
<path d="M21.3499 17.1364L20.5298 19.2872H20.1802L21.0003 17.1364H21.3499Z" fill="currentColor"/>
<path d="M27.5297 17.1364L28.3498 19.2872H28.0001L27.18 17.1364H27.5297Z" fill="currentColor"/>
<path d="M29.8006 19.8187H28.5291V19.6311H29.8006V19.8187Z" fill="currentColor"/>
<path d="M30.3296 17.1364L31.1497 19.2872H30.8001L29.98 17.1364H30.3296Z" fill="currentColor"/>
<path d="M32.6005 19.8187H31.3291V19.6311H32.6005V19.8187Z" fill="currentColor"/>
<path d="M33.1995 20V16.8738H33.5301V20H33.1995Z" fill="currentColor"/>
<path d="M37.3295 17.1364L38.1496 19.2872H37.7999L36.9798 17.1364H37.3295Z" fill="currentColor"/>
<path d="M39.6004 19.8187H38.3289V19.6311H39.6004V19.8187Z" fill="currentColor"/>
<path d="M40.1294 17.1364L40.9495 19.2872H40.5999L39.7798 17.1364H40.1294Z" fill="currentColor"/>
<path d="M42.4003 19.8187H41.1289V19.6311H42.4003V19.8187Z" fill="currentColor"/>
<path d="M43.8003 19.8187H42.5288V19.6311H43.8003V19.8187Z" fill="currentColor"/>
<path d="M45.2003 19.8187H43.9288V19.6311H45.2003V19.8187Z" fill="currentColor"/>
<path d="M46.6003 19.8187H45.3288V19.6311H46.6003V19.8187Z" fill="currentColor"/>
<path d="M48.0002 19.8187H46.7288V19.6311H48.0002V19.8187Z" fill="currentColor"/>
<path d="M49.4002 19.8187H48.1287V19.6311H49.4002V19.8187Z" fill="currentColor"/>
<path d="M50.7493 17.1364L49.9292 19.2872H49.5796L50.3997 17.1364H50.7493Z" fill="currentColor"/>
<path d="M52.2001 19.8187H50.9287V19.6311H52.2001V19.8187Z" fill="currentColor"/>
<path d="M53.5493 17.1364L52.7292 19.2872H52.3795L53.1996 17.1364H53.5493Z" fill="currentColor"/>
<path d="M55.5291 17.1364L56.3492 19.2872H55.9995L55.1795 17.1364H55.5291Z" fill="currentColor"/>
<path d="M57.8 19.8187H56.5286V19.6311H57.8V19.8187Z" fill="currentColor"/>
<path d="M58.329 17.1364L59.1491 19.2872H58.7995L57.9794 17.1364H58.329Z" fill="currentColor"/>
</svg>
